<svg xmlns="http://www.w3.org/2000/svg" xmlns:xlink="http://www.w3.org/1999/xlink" contentStyleType="text/css" data-diagram-type="STATE" height="911px" preserveAspectRatio="none" style="width:1043px;height:911px;background:#F8FAFC;" version="1.1" viewBox="0 0 1043 911" width="1043px" zoomAndPan="magnify"><?plantuml $version$?><defs/><g><rect fill="#F8FAFC" height="911" style="stroke:none;stroke-width:1;" width="1043" x="0" y="0"/><g class="title" data-source-line="1"><text fill="#000000" font-family="sans-serif" font-size="14" font-weight="700" lengthAdjust="spacing" textLength="271.1509" x="382.5691" y="24.9659">Deterministic Scheduler State Machine</text></g><g class="entity" data-qualified-name="Unvalidated" data-source-line="10" id="ent0001"><rect fill="#DBEAFE" height="50" rx="12.5" ry="12.5" style="stroke:#334155;stroke-width:0.5;" width="99.0997" x="702.71" y="127.0679"/><line style="stroke:#334155;stroke-width:0.5;" x1="702.71" x2="801.8097" y1="156.1358" y2="156.1358"/><text fill="#0F172A" font-family="sans-serif" font-size="14" lengthAdjust="spacing" textLength="79.0997" x="712.71" y="147.0339">Unvalidated</text></g><g class="entity" data-qualified-name="Executing" data-source-line="11" id="ent0002"><rect fill="#DCFCE7" height="58.1358" rx="12.5" ry="12.5" style="stroke:#334155;stroke-width:0.5;" width="109.0677" x="251.73" y="256.0679"/><line style="stroke:#334155;stroke-width:0.5;" x1="251.73" x2="360.7977" y1="304.2038" y2="304.2038"/><text fill="#0F172A" font-family="sans-serif" font-size="14" lengthAdjust="spacing" textLength="64.3857" x="261.73" y="276.0339">Executing</text><text fill="#0F172A" font-family="sans-serif" font-size="14" lengthAdjust="spacing" textLength="89.0677" x="261.73" y="295.1018">current batch</text></g><g class="entity" data-qualified-name="Committing" data-source-line="12" id="ent0003"><rect fill="#CCFBF1" height="58.1358" rx="12.5" ry="12.5" style="stroke:#334155;stroke-width:0.5;" width="99.9117" x="297.31" y="424.1979"/><line style="stroke:#334155;stroke-width:0.5;" x1="297.31" x2="397.2217" y1="472.3338" y2="472.3338"/><text fill="#0F172A" font-family="sans-serif" font-size="14" lengthAdjust="spacing" textLength="78.0917" x="307.31" y="444.1639">Committing</text><text fill="#0F172A" font-family="sans-serif" font-size="14" lengthAdjust="spacing" textLength="79.9117" x="307.31" y="463.2318">stable order</text></g><g class="entity" data-qualified-name="RejectedCycle" data-source-line="13" id="ent0004"><rect fill="#FECACA" height="50" rx="12.5" ry="12.5" style="stroke:#334155;stroke-width:0.5;" width="112.1196" x="700.2" y="344.1979"/><line style="stroke:#334155;stroke-width:0.5;" x1="700.2" x2="812.3196" y1="373.2658" y2="373.2658"/><text fill="#0F172A" font-family="sans-serif" font-size="14" lengthAdjust="spacing" textLength="92.1196" x="710.2" y="364.1639">Rejected cycle</text></g><g class="entity" data-qualified-name="Exhausted" data-source-line="14" id="ent0005"><rect fill="#FED7AA" height="50" rx="12.5" ry="12.5" style="stroke:#334155;stroke-width:0.5;" width="153.1955" x="782.67" y="512.3379"/><line style="stroke:#334155;stroke-width:0.5;" x1="782.67" x2="935.8655" y1="541.4058" y2="541.4058"/><text fill="#0F172A" font-family="sans-serif" font-size="14" lengthAdjust="spacing" textLength="133.1955" x="792.67" y="532.3039">Resource exhausted</text></g><g class="entity" data-qualified-name="Failed" data-source-line="15" id="ent0006"><rect fill="#FDA4AF" height="50" rx="12.5" ry="12.5" style="stroke:#334155;stroke-width:0.5;" width="58.8499" x="361.84" y="592.3379"/><line style="stroke:#334155;stroke-width:0.5;" x1="361.84" x2="420.6899" y1="621.4058" y2="621.4058"/><text fill="#0F172A" font-family="sans-serif" font-size="14" lengthAdjust="spacing" textLength="38.8499" x="371.84" y="612.3039">Failed</text></g><g class="entity" data-qualified-name="Cancelled" data-source-line="16" id="ent0007"><rect fill="#FDE68A" height="50" rx="12.5" ry="12.5" style="stroke:#334155;stroke-width:0.5;" width="83.6997" x="23.41" y="592.3379"/><line style="stroke:#334155;stroke-width:0.5;" x1="23.41" x2="107.1097" y1="621.4058" y2="621.4058"/><text fill="#0F172A" font-family="sans-serif" font-size="14" lengthAdjust="spacing" textLength="63.6997" x="33.41" y="612.3039">Cancelled</text></g><g class="entity" data-qualified-name="Completed" data-source-line="17" id="ent0008"><rect fill="#A7F3D0" height="50" rx="12.5" ry="12.5" style="stroke:#334155;stroke-width:0.5;" width="92.0857" x="519.22" y="592.3379"/><line style="stroke:#334155;stroke-width:0.5;" x1="519.22" x2="611.3057" y1="621.4058" y2="621.4058"/><text fill="#0F172A" font-family="sans-serif" font-size="14" lengthAdjust="spacing" textLength="72.0857" x="529.22" y="612.3039">Completed</text></g><g class="start_entity" data-qualified-name=".start." data-source-line="19" id="ent0009"><ellipse cx="752.26" cy="56.0679" fill="#222222" rx="10" ry="10" style="stroke:#222222;stroke-width:1;"/></g><g class="end_entity" data-qualified-name=".end." data-source-line="34" id="ent0022"><ellipse cx="565.26" cy="714.3379" fill="none" rx="11" ry="11" style="stroke:#222222;stroke-width:1;"/><ellipse cx="565.26" cy="714.3379" fill="#222222" rx="6" ry="6" style="stroke:#222222;stroke-width:1;"/></g><!--link *start* to Unvalidated--><g class="link" data-entity-1="ent0009" data-entity-2="ent0001" data-link-type="dependency" data-source-line="19" id="lnk10"><path d="M752.26,66.4279 C752.26,80.3579 752.26,102.0179 752.26,121.7179" fill="none" id="*start*-to-Unvalidated" style="stroke:#334155;stroke-width:1;"/><polygon fill="#334155" points="752.26,126.7179,756.26,117.7179,752.26,121.7179,748.26,117.7179,752.26,126.7179" style="stroke:#334155;stroke-width:1;stroke-linejoin:miter;stroke-miterlimit:10;"/></g><!--link Unvalidated to RejectedCycle--><g class="link" data-entity-1="ent0001" data-entity-2="ent0004" data-link-type="dependency" data-source-line="20" id="lnk11"><path d="M750.62,177.5179 C750.07,186.7679 749.53,197.3979 749.26,207.0679 C747.91,255.6279 751.2118,307.3938 753.7318,338.9338" fill="none" id="Unvalidated-to-RejectedCycle" style="stroke:#DC2626;stroke-width:1;"/><polygon fill="#DC2626" points="754.13,343.9179,757.4005,334.6279,753.7318,338.9338,749.4259,335.2651,754.13,343.9179" style="stroke:#DC2626;stroke-width:1;stroke-linejoin:miter;stroke-miterlimit:10;"/><text fill="#000000" font-family="sans-serif" font-size="13" lengthAdjust="spacing" textLength="82.7321" x="750.26" y="221.9649">cyclic relation</text></g><!--link Unvalidated to Exhausted--><g class="link" data-entity-1="ent0001" data-entity-2="ent0005" data-link-type="dependency" data-source-line="21" id="lnk12"><path d="M802.11,174.1279 C815.76,182.3679 829.05,193.2379 837.26,207.0679 C896.34,306.5779 876.8462,449.1502 865.5862,506.9402" fill="none" id="Unvalidated-to-Exhausted" style="stroke:#EA580C;stroke-width:1;"/><polygon fill="#EA580C" points="864.63,511.8479,870.2774,503.779,865.5862,506.9402,862.4251,502.2491,864.63,511.8479" style="stroke:#EA580C;stroke-width:1;stroke-linejoin:miter;stroke-miterlimit:10;"/><text fill="#000000" font-family="sans-serif" font-size="13" lengthAdjust="spacing" textLength="153.6991" x="873.59" y="290.5349">task cost exceeds budget</text></g><!--link Unvalidated to Executing--><g class="link" data-entity-1="ent0001" data-entity-2="ent0002" data-link-type="dependency" data-source-line="22" id="lnk13"><path d="M702.4,167.7179 C618.18,192.4679 453.2071,240.9479 365.8071,266.6379" fill="none" id="Unvalidated-to-Executing" style="stroke:#16A34A;stroke-width:1;"/><polygon fill="#16A34A" points="361.01,268.0479,370.7727,269.3475,365.8071,266.6379,368.5167,261.6722,361.01,268.0479" style="stroke:#16A34A;stroke-width:1;stroke-linejoin:miter;stroke-miterlimit:10;"/><text fill="#000000" font-family="sans-serif" font-size="13" lengthAdjust="spacing" textLength="130.9361" x="556.97" y="221.9649">accept canonical plan</text></g><!--link Executing to Executing--><g class="link" data-entity-1="ent0002" data-entity-2="ent0002" data-link-type="dependency" data-source-line="24" id="lnk14"><path d="M360.9,272.2879 C380.17,272.0779 395.8,276.3579 395.8,285.1379 C395.8,293.9079 385.1697,298.2398 365.8997,298.0398" fill="none" id="Executing-to-Executing" style="stroke:#16A34A;stroke-width:1;"/><polygon fill="#16A34A" points="360.9,297.9879,369.858,302.0811,365.8997,298.0398,369.941,294.0815,360.9,297.9879" style="stroke:#16A34A;stroke-width:1;stroke-linejoin:miter;stroke-miterlimit:10;"/><text fill="#000000" font-family="sans-serif" font-size="13" lengthAdjust="spacing" textLength="223.1712" x="401.8" y="290.5349">one current-batch worker completes</text></g><!--link Executing to Committing--><g class="link" data-entity-1="ent0002" data-entity-2="ent0003" data-link-type="dependency" data-source-line="25" id="lnk15"><path d="M251.57,309.8879 C237.93,318.6079 224.99,329.9279 217.26,344.1979 C206.68,363.7379 205.17,375.5579 217.26,394.1979 C226.64,408.6679 259.6884,422.9342 292.1184,434.4542" fill="none" id="Executing-to-Committing" style="stroke:#0F766E;stroke-width:1;"/><polygon fill="#0F766E" points="296.83,436.1279,289.6881,429.3461,292.1184,434.4542,287.0102,436.8846,296.83,436.1279" style="stroke:#0F766E;stroke-width:1;stroke-linejoin:miter;stroke-miterlimit:10;"/><text fill="#000000" font-family="sans-serif" font-size="13" lengthAdjust="spacing" textLength="248.4822" x="218.26" y="374.5949">complete batch and cancellation not due</text></g><!--link Committing to Executing--><g class="link" data-entity-1="ent0003" data-entity-2="ent0002" data-link-type="dependency" data-source-line="29" id="lnk18"><path d="M397.65,442.2979 C424.42,434.1679 455.06,419.6779 471.26,394.1979 C483.19,375.4479 484.11,362.3379 471.26,344.1979 C446.52,309.2579 403.9262,295.9196 366.2062,290.3396" fill="none" id="Committing-to-Executing" style="stroke:#2563EB;stroke-width:1;"/><polygon fill="#2563EB" points="361.26,289.6079,369.5778,294.8819,366.2062,290.3396,370.7485,286.968,361.26,289.6079" style="stroke:#2563EB;stroke-width:1;stroke-linejoin:miter;stroke-miterlimit:10;"/><text fill="#000000" font-family="sans-serif" font-size="13" lengthAdjust="spacing" textLength="64.5711" x="481.55" y="374.5949">next batch</text></g><!--link Executing to Cancelled--><g class="link" data-entity-1="ent0002" data-entity-2="ent0007" data-link-type="dependency" data-source-line="26" id="lnk16"><path d="M251.25,296.7579 C187.26,312.3779 84.52,348.3479 38.26,424.1979 C6,477.1179 31.9151,548.7113 50.2551,587.3313" fill="none" id="Executing-to-Cancelled" style="stroke:#D97706;stroke-width:1;"/><polygon fill="#D97706" points="52.4,591.8479,52.1525,582.0022,50.2551,587.3313,44.926,585.4339,52.4,591.8479" style="stroke:#D97706;stroke-width:1;stroke-linejoin:miter;stroke-miterlimit:10;"/><text fill="#000000" font-family="sans-serif" font-size="13" lengthAdjust="spacing" textLength="240.3962" x="39.26" y="458.6649">request then acknowledge at boundary</text></g><!--link Committing to Committing--><g class="link" data-entity-1="ent0003" data-entity-2="ent0003" data-link-type="dependency" data-source-line="28" id="lnk17"><path d="M397.43,437.5579 C416.47,436.9479 432.22,442.1879 432.22,453.2679 C432.22,464.3579 421.4675,469.7454 402.4275,469.1454" fill="none" id="Committing-to-Committing" style="stroke:#0F766E;stroke-width:1;"/><polygon fill="#0F766E" points="397.43,468.9879,406.2995,473.2694,402.4275,469.1454,406.5515,465.2734,397.43,468.9879" style="stroke:#0F766E;stroke-width:1;stroke-linejoin:miter;stroke-miterlimit:10;"/><text fill="#000000" font-family="sans-serif" font-size="13" lengthAdjust="spacing" textLength="169.6112" x="438.22" y="458.6649">publish next successful task</text></g><!--link Committing to Failed--><g class="link" data-entity-1="ent0003" data-entity-2="ent0006" data-link-type="dependency" data-source-line="30" id="lnk19"><path d="M340.76,482.7679 C336.98,505.1279 334.66,536.6779 344.26,562.3379 C348.36,573.2779 352.411,579.7733 360.171,588.2833" fill="none" id="Committing-to-Failed" style="stroke:#DC2626;stroke-width:1;"/><polygon fill="#DC2626" points="363.54,591.9779,360.4315,582.6325,360.171,588.2833,354.5202,588.0228,363.54,591.9779" style="stroke:#DC2626;stroke-width:1;stroke-linejoin:miter;stroke-miterlimit:10;"/><text fill="#000000" font-family="sans-serif" font-size="13" lengthAdjust="spacing" textLength="176.1632" x="345.26" y="542.7349">publish first canonical failure</text></g><!--link Committing to Cancelled--><g class="link" data-entity-1="ent0003" data-entity-2="ent0007" data-link-type="dependency" data-source-line="31" id="lnk20"><path d="M297.12,471.1479 C284.22,475.1479 270.3,479.1679 257.26,482.3379 C182.71,500.4579 142.42,459.0079 87.26,512.3379 C66.03,532.8579 62.6405,563.3591 63.1605,587.0891" fill="none" id="Committing-to-Cancelled" style="stroke:#D97706;stroke-width:1;"/><polygon fill="#D97706" points="63.27,592.0879,67.0719,583.0024,63.1605,587.0891,59.0738,583.1777,63.27,592.0879" style="stroke:#D97706;stroke-width:1;stroke-linejoin:miter;stroke-miterlimit:10;"/><text fill="#000000" font-family="sans-serif" font-size="13" lengthAdjust="spacing" textLength="240.3962" x="88.26" y="542.7349">request then acknowledge at boundary</text></g><!--link Committing to Completed--><g class="link" data-entity-1="ent0003" data-entity-2="ent0008" data-link-type="dependency" data-source-line="32" id="lnk21"><path d="M397.7,458.7779 C437.31,464.8379 491.43,479.0379 526.26,512.3379 C548.43,533.5279 557.2298,563.5842 561.3798,587.0642" fill="none" id="Committing-to-Completed" style="stroke:#16A34A;stroke-width:1;"/><polygon fill="#16A34A" points="562.25,591.9879,564.6225,582.4291,561.3798,587.0642,556.7446,583.8215,562.25,591.9879" style="stroke:#16A34A;stroke-width:1;stroke-linejoin:miter;stroke-miterlimit:10;"/><text fill="#000000" font-family="sans-serif" font-size="13" lengthAdjust="spacing" textLength="169.1822" x="555.52" y="542.7349">publish final successful task</text></g><!--link RejectedCycle to *end*--><g class="link" data-entity-1="ent0004" data-entity-2="ent0022" data-link-type="dependency" data-source-line="34" id="lnk23"><path d="M758.61,394.5379 C761.17,432.6279 761.67,507.6279 733.26,562.3379 C694.77,636.4679 608.3909,689.332 578.9909,705.822" fill="none" id="RejectedCycle-to-*end*" style="stroke:#334155;stroke-width:1;"/><polygon fill="#334155" points="574.63,708.2679,584.4364,707.3539,578.9909,705.822,580.5228,700.3765,574.63,708.2679" style="stroke:#334155;stroke-width:1;stroke-linejoin:miter;stroke-miterlimit:10;"/></g><!--link Exhausted to *end*--><g class="link" data-entity-1="ent0005" data-entity-2="ent0022" data-link-type="dependency" data-source-line="35" id="lnk24"><path d="M852.96,562.6479 C843.62,593.5479 822.99,646.1379 785.26,673.3379 C751.02,698.0279 621.1465,709.2707 581.3565,712.2007" fill="none" id="Exhausted-to-*end*" style="stroke:#334155;stroke-width:1;"/><polygon fill="#334155" points="576.37,712.5679,585.6394,715.8962,581.3565,712.2007,585.0519,707.9178,576.37,712.5679" style="stroke:#334155;stroke-width:1;stroke-linejoin:miter;stroke-miterlimit:10;"/></g><!--link Failed to *end*--><g class="link" data-entity-1="ent0006" data-entity-2="ent0022" data-link-type="dependency" data-source-line="36" id="lnk25"><path d="M421.17,634.6679 C461.4,656.6279 526.3916,692.1117 551.4816,705.8117" fill="none" id="Failed-to-*end*" style="stroke:#334155;stroke-width:1;"/><polygon fill="#334155" points="555.87,708.2079,549.8878,700.384,551.4816,705.8117,546.0539,707.4054,555.87,708.2079" style="stroke:#334155;stroke-width:1;stroke-linejoin:miter;stroke-miterlimit:10;"/></g><!--link Cancelled to *end*--><g class="link" data-entity-1="ent0007" data-entity-2="ent0022" data-link-type="dependency" data-source-line="37" id="lnk26"><path d="M107.46,626.3579 C215.06,646.7979 490.3978,699.1148 549.3578,710.3148" fill="none" id="Cancelled-to-*end*" style="stroke:#334155;stroke-width:1;"/><polygon fill="#334155" points="554.27,711.2479,546.1746,705.6386,549.3578,710.3148,544.6816,713.498,554.27,711.2479" style="stroke:#334155;stroke-width:1;stroke-linejoin:miter;stroke-miterlimit:10;"/></g><!--link Completed to *end*--><g class="link" data-entity-1="ent0008" data-entity-2="ent0022" data-link-type="dependency" data-source-line="38" id="lnk27"><path d="M565.26,642.7979 C565.26,662.3779 565.26,683.8279 565.26,698.1379" fill="none" id="Completed-to-*end*" style="stroke:#334155;stroke-width:1;"/><polygon fill="#334155" points="565.26,703.1379,569.26,694.1379,565.26,698.1379,561.26,694.1379,565.26,703.1379" style="stroke:#334155;stroke-width:1;stroke-linejoin:miter;stroke-miterlimit:10;"/></g><g class="legend" data-source-line="40"><rect fill="none" height="147.4754" rx="7.5" ry="7.5" style="stroke:#000000;stroke-width:1;" width="222.7992" x="801.4899" y="745.3379"/><text fill="#000000" font-family="sans-serif" font-size="14" font-weight="700" lengthAdjust="spacing" textLength="36.9179" x="810.1299" y="767.3039">Color</text><text fill="#000000" font-family="sans-serif" font-size="14" font-weight="700" lengthAdjust="spacing" textLength="61.1798" x="854.3278" y="767.3039">Meaning</text><rect fill="#DBEAFE" height="19.0679" style="stroke:none;stroke-width:1;" width="44.1978" x="806.4899" y="771.4058"/><text fill="#000000" font-family="sans-serif" font-size="14" lengthAdjust="spacing" textLength="3.64" x="806.4899" y="786.3718">&#160;</text><text fill="#000000" font-family="sans-serif" font-size="14" lengthAdjust="spacing" textLength="65.7298" x="854.3278" y="786.3718">Validation</text><rect fill="#DCFCE7" height="19.0679" style="stroke:none;stroke-width:1;" width="44.1978" x="806.4899" y="790.4738"/><text fill="#000000" font-family="sans-serif" font-size="14" lengthAdjust="spacing" textLength="3.64" x="806.4899" y="805.4397">&#160;</text><text fill="#000000" font-family="sans-serif" font-size="14" lengthAdjust="spacing" textLength="116.4235" x="854.3278" y="805.4397">Worker execution</text><rect fill="#CCFBF1" height="19.0679" style="stroke:none;stroke-width:1;" width="44.1978" x="806.4899" y="809.5417"/><text fill="#000000" font-family="sans-serif" font-size="14" lengthAdjust="spacing" textLength="3.64" x="806.4899" y="824.5076">&#160;</text><text fill="#000000" font-family="sans-serif" font-size="14" lengthAdjust="spacing" textLength="132.6075" x="854.3278" y="824.5076">Ordered publication</text><rect fill="#A7F3D0" height="19.0679" style="stroke:none;stroke-width:1;" width="44.1978" x="806.4899" y="828.6096"/><text fill="#000000" font-family="sans-serif" font-size="14" lengthAdjust="spacing" textLength="3.64" x="806.4899" y="843.5755">&#160;</text><text fill="#000000" font-family="sans-serif" font-size="14" lengthAdjust="spacing" textLength="127.3575" x="854.3278" y="843.5755">Successful terminal</text><rect fill="#FECACA" height="19.0679" style="stroke:none;stroke-width:1;" width="44.1978" x="806.4899" y="847.6775"/><text fill="#000000" font-family="sans-serif" font-size="14" lengthAdjust="spacing" textLength="3.64" x="806.4899" y="862.6434">&#160;</text><text fill="#000000" font-family="sans-serif" font-size="14" lengthAdjust="spacing" textLength="161.3214" x="854.3278" y="862.6434">Invalid or failed terminal</text><rect fill="#FDE68A" height="19.0679" style="stroke:none;stroke-width:1;" width="44.1978" x="806.4899" y="866.7454"/><text fill="#000000" font-family="sans-serif" font-size="14" lengthAdjust="spacing" textLength="3.64" x="806.4899" y="881.7114">&#160;</text><text fill="#000000" font-family="sans-serif" font-size="14" lengthAdjust="spacing" textLength="140.0275" x="854.3278" y="881.7114">Cancellation terminal</text><line style="stroke:#000000;stroke-width:1;" x1="806.4899" x2="1019.2891" y1="752.3379" y2="752.3379"/><line style="stroke:#000000;stroke-width:1;" x1="806.4899" x2="1019.2891" y1="771.4058" y2="771.4058"/><line style="stroke:#000000;stroke-width:1;" x1="806.4899" x2="1019.2891" y1="790.4738" y2="790.4738"/><line style="stroke:#000000;stroke-width:1;" x1="806.4899" x2="1019.2891" y1="809.5417" y2="809.5417"/><line style="stroke:#000000;stroke-width:1;" x1="806.4899" x2="1019.2891" y1="828.6096" y2="828.6096"/><line style="stroke:#000000;stroke-width:1;" x1="806.4899" x2="1019.2891" y1="847.6775" y2="847.6775"/><line style="stroke:#000000;stroke-width:1;" x1="806.4899" x2="1019.2891" y1="866.7454" y2="866.7454"/><line style="stroke:#000000;stroke-width:1;" x1="806.4899" x2="1019.2891" y1="885.8133" y2="885.8133"/><line style="stroke:#000000;stroke-width:1;" x1="806.4899" x2="806.4899" y1="752.3379" y2="885.8133"/><line style="stroke:#000000;stroke-width:1;" x1="850.6878" x2="850.6878" y1="752.3379" y2="885.8133"/><line style="stroke:#000000;stroke-width:1;" x1="1019.2891" x2="1019.2891" y1="752.3379" y2="885.8133"/></g><?plantuml-src dLJBRjim4BppAnRnhO01Fs8vDTe0iYm1FGG56hGzf3dGrDfIBPCkITK9wlvxLzIB5f1BRtpCB7TdXsjpMo1iqA8-vZ8tDXVmA39Com8rF5fk4Hwuo7A9p1noUUAQ7s7BnM6lLIdJI1LAmoYvIy8ayX0cuwawvt8FEruOdnjghSuDRJw_dIuMFiqz-8S194hQ1ZL9fijPI6ThfLFKrzo_ZDMacw_oDo_obDRf3N03tXv6ctKS9d4BZLzGb9Qo-o55gJLAIoLPaJbUTqciA8dYPSkArF6Osvf6HriIpYNaMFqbZA8eMIVJblO5VwAeaX2lea07Re-YweJKYwCm2dkyKQKM2FYIyTAqvSJjhi9lbc67JtXUD9XwIO1DU1icNTvS2YnQJBUhO75m5thbdGfid-jsC0gNoNmpOUpftJECn_U-iCmNUVn4Wis2MV1CeEiILwvuyfR6WjjSoI4n3XTtawWYzdMkm79p0A6C9Iq4OcfWMwPxj4FsD0Zdjs7DRfkt0Yu4dYm8BfNC1I_WL739M0zvawaaGcECiJC6d9K-q8SGZIhcEieaMGP1N4NnRB3gqBMvWCkqIgPItsa0Kbb8IxoEjNc_N4wSX7sdLgJRhn991vkXfC8EKftfOe_0oRhLH-JwbJ7lzRUpEfNR8ZSPI7onO4eIoPXTMJYn1n5cYs0UhuVgEA8hQG3lkzyOiNzibslZjs97W5BZCC3_rtuTg6zhxsC_6Kaf34jdrvQjd4wEPxqVsvEck7RRfzgTT6-s9wp0FLBxTRxFBBjyX7g8qU81kQoIlh3BXsPAtL_WM-tkoYJrXHj4TF6zzY7MxMYlwu53rv-hUKJlkag55w3-muHuzAfsCv-KS8Xw217YK_stQBQvBb6q0T1D3G96lfSz31LQb_iF?></g></svg>