<svg xmlns="http://www.w3.org/2000/svg" xmlns:xlink="http://www.w3.org/1999/xlink" contentStyleType="text/css" data-diagram-type="STATE" height="930px" preserveAspectRatio="none" style="width:1595px;height:930px;background:#F8FAFC;" version="1.1" viewBox="0 0 1595 930" width="1595px" zoomAndPan="magnify"><?plantuml $version$?><defs/><g><rect fill="#F8FAFC" height="930" style="stroke:none;stroke-width:1;" width="1595" x="0" y="0"/><g class="title" data-source-line="1"><text fill="#000000" font-family="sans-serif" font-size="14" font-weight="700" lengthAdjust="spacing" textLength="271.1509" x="658.6926" y="24.9659">Deterministic Scheduler State Machine</text></g><g class="entity" data-qualified-name="Unvalidated" data-source-line="10" id="ent0001"><rect fill="#DBEAFE" height="50" rx="12.5" ry="12.5" style="stroke:#334155;stroke-width:0.5;" width="99.0997" x="210.51" y="127.0679"/><line style="stroke:#334155;stroke-width:0.5;" x1="210.51" x2="309.6097" y1="156.1358" y2="156.1358"/><text fill="#0F172A" font-family="sans-serif" font-size="14" lengthAdjust="spacing" textLength="79.0997" x="220.51" y="147.0339">Unvalidated</text></g><g class="entity" data-qualified-name="Executing" data-source-line="11" id="ent0002"><rect fill="#DCFCE7" height="58.1358" rx="12.5" ry="12.5" style="stroke:#334155;stroke-width:0.5;" width="109.0677" x="683.53" y="256.0679"/><line style="stroke:#334155;stroke-width:0.5;" x1="683.53" x2="792.5977" y1="304.2038" y2="304.2038"/><text fill="#0F172A" font-family="sans-serif" font-size="14" lengthAdjust="spacing" textLength="64.3857" x="693.53" y="276.0339">Executing</text><text fill="#0F172A" font-family="sans-serif" font-size="14" lengthAdjust="spacing" textLength="89.0677" x="693.53" y="295.1018">current batch</text></g><g class="entity" data-qualified-name="Committing" data-source-line="12" id="ent0003"><rect fill="#CCFBF1" height="58.1358" rx="12.5" ry="12.5" style="stroke:#334155;stroke-width:0.5;" width="99.9117" x="745.1" y="424.1979"/><line style="stroke:#334155;stroke-width:0.5;" x1="745.1" x2="845.0117" y1="472.3338" y2="472.3338"/><text fill="#0F172A" font-family="sans-serif" font-size="14" lengthAdjust="spacing" textLength="78.0917" x="755.1" y="444.1639">Committing</text><text fill="#0F172A" font-family="sans-serif" font-size="14" lengthAdjust="spacing" textLength="79.9117" x="755.1" y="463.2318">stable order</text></g><g class="entity" data-qualified-name="RejectedCycle" data-source-line="13" id="ent0004"><rect fill="#FECACA" height="50" rx="12.5" ry="12.5" style="stroke:#334155;stroke-width:0.5;" width="112.1196" x="7" y="344.1979"/><line style="stroke:#334155;stroke-width:0.5;" x1="7" x2="119.1196" y1="373.2658" y2="373.2658"/><text fill="#0F172A" font-family="sans-serif" font-size="14" lengthAdjust="spacing" textLength="92.1196" x="17" y="364.1639">Rejected cycle</text></g><g class="entity" data-qualified-name="Exhausted" data-source-line="14" id="ent0005"><rect fill="#FED7AA" height="50" rx="12.5" ry="12.5" style="stroke:#334155;stroke-width:0.5;" width="153.1955" x="142.46" y="512.3379"/><line style="stroke:#334155;stroke-width:0.5;" x1="142.46" x2="295.6555" y1="541.4058" y2="541.4058"/><text fill="#0F172A" font-family="sans-serif" font-size="14" lengthAdjust="spacing" textLength="133.1955" x="152.46" y="532.3039">Resource exhausted</text></g><g class="entity" data-qualified-name="Failed" data-source-line="15" id="ent0006"><rect fill="#FDA4AF" height="50" rx="12.5" ry="12.5" style="stroke:#334155;stroke-width:0.5;" width="58.8499" x="795.63" y="592.3379"/><line style="stroke:#334155;stroke-width:0.5;" x1="795.63" x2="854.4799" y1="621.4058" y2="621.4058"/><text fill="#0F172A" font-family="sans-serif" font-size="14" lengthAdjust="spacing" textLength="38.8499" x="805.63" y="612.3039">Failed</text></g><g class="entity" data-qualified-name="Incomplete" data-source-line="16" id="ent0007"><rect fill="#C4B5FD" height="50" rx="12.5" ry="12.5" style="stroke:#334155;stroke-width:0.5;" width="94.7457" x="374.69" y="592.3379"/><line style="stroke:#334155;stroke-width:0.5;" x1="374.69" x2="469.4357" y1="621.4058" y2="621.4058"/><text fill="#0F172A" font-family="sans-serif" font-size="14" lengthAdjust="spacing" textLength="74.7457" x="384.69" y="612.3039">Incomplete</text></g><g class="entity" data-qualified-name="Cancelled" data-source-line="17" id="ent0008"><rect fill="#FDE68A" height="50" rx="12.5" ry="12.5" style="stroke:#334155;stroke-width:0.5;" width="83.6997" x="1094.21" y="592.3379"/><line style="stroke:#334155;stroke-width:0.5;" x1="1094.21" x2="1177.9097" y1="621.4058" y2="621.4058"/><text fill="#0F172A" font-family="sans-serif" font-size="14" lengthAdjust="spacing" textLength="63.6997" x="1104.21" y="612.3039">Cancelled</text></g><g class="entity" data-qualified-name="Completed" data-source-line="18" id="ent0009"><rect fill="#A7F3D0" height="50" rx="12.5" ry="12.5" style="stroke:#334155;stroke-width:0.5;" width="92.0857" x="504.02" y="592.3379"/><line style="stroke:#334155;stroke-width:0.5;" x1="504.02" x2="596.1057" y1="621.4058" y2="621.4058"/><text fill="#0F172A" font-family="sans-serif" font-size="14" lengthAdjust="spacing" textLength="72.0857" x="514.02" y="612.3039">Completed</text></g><g class="start_entity" data-qualified-name=".start." data-source-line="20" id="ent0010"><ellipse cx="260.06" cy="56.0679" fill="#222222" rx="10" ry="10" style="stroke:#222222;stroke-width:1;"/></g><g class="end_entity" data-qualified-name=".end." data-source-line="37" id="ent0025"><ellipse cx="464.06" cy="714.3379" fill="none" rx="11" ry="11" style="stroke:#222222;stroke-width:1;"/><ellipse cx="464.06" cy="714.3379" fill="#222222" rx="6" ry="6" style="stroke:#222222;stroke-width:1;"/></g><!--link *start* to Unvalidated--><g class="link" data-entity-1="ent0010" data-entity-2="ent0001" data-link-type="dependency" data-source-line="20" id="lnk11"><path d="M260.06,66.4279 C260.06,80.3579 260.06,102.0179 260.06,121.7179" fill="none" id="*start*-to-Unvalidated" style="stroke:#334155;stroke-width:1;"/><polygon fill="#334155" points="260.06,126.7179,264.06,117.7179,260.06,121.7179,256.06,117.7179,260.06,126.7179" style="stroke:#334155;stroke-width:1;stroke-linejoin:miter;stroke-miterlimit:10;"/></g><!--link Unvalidated to RejectedCycle--><g class="link" data-entity-1="ent0001" data-entity-2="ent0004" data-link-type="dependency" data-source-line="21" id="lnk12"><path d="M210.11,158.6179 C153.36,166.0779 66.02,181.4479 46.06,207.0679 C15.2,246.6779 33.6162,304.8158 48.8162,339.1558" fill="none" id="Unvalidated-to-RejectedCycle" style="stroke:#DC2626;stroke-width:1;"/><polygon fill="#DC2626" points="50.84,343.7279,50.8549,333.8791,48.8162,339.1558,43.5395,337.1171,50.84,343.7279" style="stroke:#DC2626;stroke-width:1;stroke-linejoin:miter;stroke-miterlimit:10;"/><text fill="#000000" font-family="sans-serif" font-size="13" lengthAdjust="spacing" textLength="82.7321" x="47.06" y="221.9649">cyclic relation</text></g><!--link Unvalidated to Exhausted--><g class="link" data-entity-1="ent0001" data-entity-2="ent0005" data-link-type="dependency" data-source-line="22" id="lnk13"><path d="M234.57,177.4379 C216.3,196.7779 193.2,225.5579 183.06,256.0679 C152.8,347.0779 187.9448,457.8752 207.1048,507.3652" fill="none" id="Unvalidated-to-Exhausted" style="stroke:#EA580C;stroke-width:1;"/><polygon fill="#EA580C" points="208.91,512.0279,209.3909,502.1908,207.1048,507.3652,201.9305,505.0791,208.91,512.0279" style="stroke:#EA580C;stroke-width:1;stroke-linejoin:miter;stroke-miterlimit:10;"/><text fill="#000000" font-family="sans-serif" font-size="13" lengthAdjust="spacing" textLength="153.6991" x="184.06" y="290.5349">task cost exceeds budget</text></g><!--link Unvalidated to Completed--><g class="link" data-entity-1="ent0001" data-entity-2="ent0009" data-link-type="dependency" data-source-line="23" id="lnk14"><path d="M285.29,177.3179 C303.98,196.7979 328.49,225.8279 342.06,256.0679 C398.62,382.0979 304.65,457.8879 395.06,562.3379 C423.21,594.8579 446.51,578.0079 487.06,592.3379 C492.47,594.2479 493.4229,594.567 499.0229,596.647" fill="none" id="Unvalidated-to-Completed" style="stroke:#16A34A;stroke-width:1;"/><polygon fill="#16A34A" points="503.71,598.3879,496.6659,591.5045,499.0229,596.647,493.8804,599.0039,503.71,598.3879" style="stroke:#16A34A;stroke-width:1;stroke-linejoin:miter;stroke-miterlimit:10;"/><text fill="#000000" font-family="sans-serif" font-size="13" lengthAdjust="spacing" textLength="74.2951" x="362.55" y="374.5949">empty input</text></g><!--link Unvalidated to Executing--><g class="link" data-entity-1="ent0001" data-entity-2="ent0002" data-link-type="dependency" data-source-line="24" id="lnk15"><path d="M309.86,166.7179 C400.01,191.4379 584.738,242.0957 678.428,267.7857" fill="none" id="Unvalidated-to-Executing" style="stroke:#16A34A;stroke-width:1;"/><polygon fill="#16A34A" points="683.25,269.1079,675.6281,262.8703,678.428,267.7857,673.5126,270.5856,683.25,269.1079" style="stroke:#16A34A;stroke-width:1;stroke-linejoin:miter;stroke-miterlimit:10;"/><text fill="#000000" font-family="sans-serif" font-size="13" lengthAdjust="spacing" textLength="130.9361" x="514.39" y="221.9649">accept canonical plan</text></g><!--link Executing to Executing--><g class="link" data-entity-1="ent0002" data-entity-2="ent0002" data-link-type="dependency" data-source-line="26" id="lnk16"><path d="M792.7,272.2879 C811.96,272.0779 827.59,276.3579 827.59,285.1379 C827.59,293.9079 816.9597,298.2398 797.6997,298.0398" fill="none" id="Executing-to-Executing" style="stroke:#16A34A;stroke-width:1;"/><polygon fill="#16A34A" points="792.7,297.9879,801.658,302.0812,797.6997,298.0398,801.741,294.0816,792.7,297.9879" style="stroke:#16A34A;stroke-width:1;stroke-linejoin:miter;stroke-miterlimit:10;"/><text fill="#000000" font-family="sans-serif" font-size="13" lengthAdjust="spacing" textLength="223.1712" x="833.59" y="290.5349">one current-batch worker completes</text></g><!--link Executing to Committing--><g class="link" data-entity-1="ent0002" data-entity-2="ent0003" data-link-type="dependency" data-source-line="27" id="lnk17"><path d="M683.09,292.3879 C650.17,299.2779 610.82,313.7579 590.06,344.1979 C577.54,362.5579 576.66,376.4779 590.06,394.1979 C608.69,418.8379 685.3166,435.2344 739.7766,444.2144" fill="none" id="Executing-to-Committing" style="stroke:#0F766E;stroke-width:1;"/><polygon fill="#0F766E" points="744.71,445.0279,736.4807,439.617,739.7766,444.2144,735.1791,447.5104,744.71,445.0279" style="stroke:#0F766E;stroke-width:1;stroke-linejoin:miter;stroke-miterlimit:10;"/><text fill="#000000" font-family="sans-serif" font-size="13" lengthAdjust="spacing" textLength="248.4822" x="591.06" y="374.5949">complete batch and cancellation not due</text></g><!--link Committing to Executing--><g class="link" data-entity-1="ent0003" data-entity-2="ent0002" data-link-type="dependency" data-source-line="31" id="lnk20"><path d="M825.78,423.8579 C833.2,415.1379 840.12,404.9779 844.06,394.1979 C851.69,373.3279 855.39,363.3179 844.06,344.1979 C832.72,325.0679 817.1518,313.8869 797.4618,304.9369" fill="none" id="Committing-to-Executing" style="stroke:#2563EB;stroke-width:1;"/><polygon fill="#2563EB" points="792.91,302.8679,799.4481,310.2336,797.4618,304.9369,802.7585,302.9507,792.91,302.8679" style="stroke:#2563EB;stroke-width:1;stroke-linejoin:miter;stroke-miterlimit:10;"/><text fill="#000000" font-family="sans-serif" font-size="13" lengthAdjust="spacing" textLength="64.5711" x="852.23" y="374.5949">next batch</text></g><!--link Executing to Cancelled--><g class="link" data-entity-1="ent0002" data-entity-2="ent0008" data-link-type="dependency" data-source-line="28" id="lnk18"><path d="M792.99,286.4979 C919.5,290.6979 1230.62,320.9279 1362.06,512.3379 C1374.64,530.6579 1375.83,544.8979 1362.06,562.3379 C1339.57,590.8379 1241.9402,605.4131 1183.0102,611.8731" fill="none" id="Executing-to-Cancelled" style="stroke:#D97706;stroke-width:1;"/><polygon fill="#D97706" points="1178.04,612.4179,1187.4223,615.4134,1183.0102,611.8731,1186.5505,607.461,1178.04,612.4179" style="stroke:#D97706;stroke-width:1;stroke-linejoin:miter;stroke-miterlimit:10;"/><text fill="#000000" font-family="sans-serif" font-size="13" lengthAdjust="spacing" textLength="240.3962" x="1339.14" y="458.6649">request then acknowledge at boundary</text></g><!--link Committing to Committing--><g class="link" data-entity-1="ent0003" data-entity-2="ent0003" data-link-type="dependency" data-source-line="30" id="lnk19"><path d="M845.22,437.5579 C864.27,436.9479 880.02,442.1879 880.02,453.2679 C880.02,464.3579 869.2675,469.7453 850.2175,469.1453" fill="none" id="Committing-to-Committing" style="stroke:#0F766E;stroke-width:1;"/><polygon fill="#0F766E" points="845.22,468.9879,854.0896,473.2693,850.2175,469.1453,854.3415,465.2732,845.22,468.9879" style="stroke:#0F766E;stroke-width:1;stroke-linejoin:miter;stroke-miterlimit:10;"/><text fill="#000000" font-family="sans-serif" font-size="13" lengthAdjust="spacing" textLength="169.6112" x="886.02" y="458.6649">publish next successful task</text></g><!--link Committing to Failed--><g class="link" data-entity-1="ent0003" data-entity-2="ent0006" data-link-type="dependency" data-source-line="32" id="lnk21"><path d="M845.43,477.7379 C858.79,486.5779 871.57,498.0479 879.06,512.3379 C889.38,532.0179 887.56,541.8079 879.06,562.3379 C873.94,574.7079 868.1375,582.3512 858.5275,591.1512" fill="none" id="Committing-to-Failed" style="stroke:#DC2626;stroke-width:1;"/><polygon fill="#DC2626" points="854.84,594.5279,864.1789,591.3999,858.5275,591.1512,858.7762,585.4998,854.84,594.5279" style="stroke:#DC2626;stroke-width:1;stroke-linejoin:miter;stroke-miterlimit:10;"/><text fill="#000000" font-family="sans-serif" font-size="13" lengthAdjust="spacing" textLength="176.1632" x="887.13" y="542.7349">publish first canonical failure</text></g><!--link Committing to Incomplete--><g class="link" data-entity-1="ent0003" data-entity-2="ent0007" data-link-type="dependency" data-source-line="33" id="lnk22"><path d="M744.61,454.2179 C651.19,455.3079 456.96,463.5479 415.06,512.3379 C396.31,534.1679 401.8912,564.2811 410.0712,587.5411" fill="none" id="Committing-to-Incomplete" style="stroke:#7C3AED;stroke-width:1;"/><polygon fill="#7C3AED" points="411.73,592.2579,412.5176,582.4406,410.0712,587.5411,404.9707,585.0947,411.73,592.2579" style="stroke:#7C3AED;stroke-width:1;stroke-linejoin:miter;stroke-miterlimit:10;"/><text fill="#000000" font-family="sans-serif" font-size="13" lengthAdjust="spacing" textLength="243.6982" x="416.06" y="542.7349">publish first canonical incomplete result</text></g><!--link Committing to Cancelled--><g class="link" data-entity-1="ent0003" data-entity-2="ent0008" data-link-type="dependency" data-source-line="34" id="lnk23"><path d="M845.4,460.0079 C914.99,468.7279 1036.09,487.0379 1072.06,512.3379 C1099.98,531.9679 1116.2477,563.4037 1125.8477,587.4737" fill="none" id="Committing-to-Cancelled" style="stroke:#D97706;stroke-width:1;"/><polygon fill="#D97706" points="1127.7,592.1179,1128.0813,582.2764,1125.8477,587.4737,1120.6505,585.2401,1127.7,592.1179" style="stroke:#D97706;stroke-width:1;stroke-linejoin:miter;stroke-miterlimit:10;"/><text fill="#000000" font-family="sans-serif" font-size="13" lengthAdjust="spacing" textLength="240.3962" x="1113.22" y="542.7349">request then acknowledge at boundary</text></g><!--link Committing to Completed--><g class="link" data-entity-1="ent0003" data-entity-2="ent0009" data-link-type="dependency" data-source-line="35" id="lnk24"><path d="M744.67,479.3279 C729.3,488.4179 713.04,499.6279 700.06,512.3379 C681.21,530.7979 687.98,545.0379 668.06,562.3379 C647.4,580.2879 624.4496,591.6068 601.1196,600.3868" fill="none" id="Committing-to-Completed" style="stroke:#16A34A;stroke-width:1;"/><polygon fill="#16A34A" points="596.44,602.1479,606.2721,602.7216,601.1196,600.3868,603.4544,595.2343,596.44,602.1479" style="stroke:#16A34A;stroke-width:1;stroke-linejoin:miter;stroke-miterlimit:10;"/><text fill="#000000" font-family="sans-serif" font-size="13" lengthAdjust="spacing" textLength="169.1822" x="701.06" y="542.7349">publish final successful task</text></g><!--link RejectedCycle to *end*--><g class="link" data-entity-1="ent0004" data-entity-2="ent0025" data-link-type="dependency" data-source-line="37" id="lnk26"><path d="M64.99,394.6179 C69.31,434.1679 82.95,512.7979 125.06,562.3379 C217.91,671.5579 400.4917,704.271 447.9817,711.151" fill="none" id="RejectedCycle-to-*end*" style="stroke:#334155;stroke-width:1;"/><polygon fill="#334155" points="452.93,711.8679,444.5965,706.6189,447.9817,711.151,443.4495,714.5362,452.93,711.8679" style="stroke:#334155;stroke-width:1;stroke-linejoin:miter;stroke-miterlimit:10;"/></g><!--link Exhausted to *end*--><g class="link" data-entity-1="ent0005" data-entity-2="ent0025" data-link-type="dependency" data-source-line="38" id="lnk27"><path d="M250.18,562.6279 C277.89,584.0679 319.71,615.9079 357.06,642.3379 C392.73,667.5779 432.2847,693.0988 450.8447,704.9388" fill="none" id="Exhausted-to-*end*" style="stroke:#334155;stroke-width:1;"/><polygon fill="#334155" points="455.06,707.6279,449.6237,699.4153,450.8447,704.9388,445.3212,706.1598,455.06,707.6279" style="stroke:#334155;stroke-width:1;stroke-linejoin:miter;stroke-miterlimit:10;"/></g><!--link Failed to *end*--><g class="link" data-entity-1="ent0006" data-entity-2="ent0025" data-link-type="dependency" data-source-line="39" id="lnk28"><path d="M795.21,626.1979 C719.53,646.1079 527.5852,696.6149 479.5752,709.2549" fill="none" id="Failed-to-*end*" style="stroke:#334155;stroke-width:1;"/><polygon fill="#334155" points="474.74,710.5279,484.4618,712.1047,479.5752,709.2549,482.425,704.3683,474.74,710.5279" style="stroke:#334155;stroke-width:1;stroke-linejoin:miter;stroke-miterlimit:10;"/></g><!--link Incomplete to *end*--><g class="link" data-entity-1="ent0007" data-entity-2="ent0025" data-link-type="dependency" data-source-line="40" id="lnk29"><path d="M432.88,642.7979 C441.72,662.8179 451.7272,685.4454 457.9472,699.5054" fill="none" id="Incomplete-to-*end*" style="stroke:#334155;stroke-width:1;"/><polygon fill="#334155" points="459.97,704.0779,459.9869,694.2291,457.9472,699.5054,452.6709,697.4656,459.97,704.0779" style="stroke:#334155;stroke-width:1;stroke-linejoin:miter;stroke-miterlimit:10;"/></g><!--link Cancelled to *end*--><g class="link" data-entity-1="ent0008" data-entity-2="ent0025" data-link-type="dependency" data-source-line="41" id="lnk30"><path d="M1093.77,624.3179 C959.59,643.2879 552.9708,700.7681 480.1008,711.0681" fill="none" id="Cancelled-to-*end*" style="stroke:#334155;stroke-width:1;"/><polygon fill="#334155" points="475.15,711.7679,484.6212,714.4689,480.1008,711.0681,483.5016,706.5477,475.15,711.7679" style="stroke:#334155;stroke-width:1;stroke-linejoin:miter;stroke-miterlimit:10;"/></g><!--link Completed to *end*--><g class="link" data-entity-1="ent0009" data-entity-2="ent0025" data-link-type="dependency" data-source-line="42" id="lnk31"><path d="M527.91,642.7979 C509.2,663.4779 486.8968,688.1223 474.5768,701.7223" fill="none" id="Completed-to-*end*" style="stroke:#334155;stroke-width:1;"/><polygon fill="#334155" points="471.22,705.4279,480.2268,701.4433,474.5768,701.7223,474.2978,696.0723,471.22,705.4279" style="stroke:#334155;stroke-width:1;stroke-linejoin:miter;stroke-miterlimit:10;"/></g><g class="legend" data-source-line="44"><rect fill="none" height="166.5433" rx="7.5" ry="7.5" style="stroke:#000000;stroke-width:1;" width="222.7992" x="1353.737" y="745.3379"/><text fill="#000000" font-family="sans-serif" font-size="14" font-weight="700" lengthAdjust="spacing" textLength="36.9179" x="1362.377" y="767.3039">Color</text><text fill="#000000" font-family="sans-serif" font-size="14" font-weight="700" lengthAdjust="spacing" textLength="61.1798" x="1406.5748" y="767.3039">Meaning</text><rect fill="#DBEAFE" height="19.0679" style="stroke:none;stroke-width:1;" width="44.1978" x="1358.737" y="771.4058"/><text fill="#000000" font-family="sans-serif" font-size="14" lengthAdjust="spacing" textLength="3.64" x="1358.737" y="786.3718">&#160;</text><text fill="#000000" font-family="sans-serif" font-size="14" lengthAdjust="spacing" textLength="65.7298" x="1406.5748" y="786.3718">Validation</text><rect fill="#DCFCE7" height="19.0679" style="stroke:none;stroke-width:1;" width="44.1978" x="1358.737" y="790.4738"/><text fill="#000000" font-family="sans-serif" font-size="14" lengthAdjust="spacing" textLength="3.64" x="1358.737" y="805.4397">&#160;</text><text fill="#000000" font-family="sans-serif" font-size="14" lengthAdjust="spacing" textLength="116.4235" x="1406.5748" y="805.4397">Worker execution</text><rect fill="#CCFBF1" height="19.0679" style="stroke:none;stroke-width:1;" width="44.1978" x="1358.737" y="809.5417"/><text fill="#000000" font-family="sans-serif" font-size="14" lengthAdjust="spacing" textLength="3.64" x="1358.737" y="824.5076">&#160;</text><text fill="#000000" font-family="sans-serif" font-size="14" lengthAdjust="spacing" textLength="132.6075" x="1406.5748" y="824.5076">Ordered publication</text><rect fill="#A7F3D0" height="19.0679" style="stroke:none;stroke-width:1;" width="44.1978" x="1358.737" y="828.6096"/><text fill="#000000" font-family="sans-serif" font-size="14" lengthAdjust="spacing" textLength="3.64" x="1358.737" y="843.5755">&#160;</text><text fill="#000000" font-family="sans-serif" font-size="14" lengthAdjust="spacing" textLength="127.3575" x="1406.5748" y="843.5755">Successful terminal</text><rect fill="#FECACA" height="19.0679" style="stroke:none;stroke-width:1;" width="44.1978" x="1358.737" y="847.6775"/><text fill="#000000" font-family="sans-serif" font-size="14" lengthAdjust="spacing" textLength="3.64" x="1358.737" y="862.6434">&#160;</text><text fill="#000000" font-family="sans-serif" font-size="14" lengthAdjust="spacing" textLength="161.3214" x="1406.5748" y="862.6434">Invalid or failed terminal</text><rect fill="#C4B5FD" height="19.0679" style="stroke:none;stroke-width:1;" width="44.1978" x="1358.737" y="866.7454"/><text fill="#000000" font-family="sans-serif" font-size="14" lengthAdjust="spacing" textLength="3.64" x="1358.737" y="881.7114">&#160;</text><text fill="#000000" font-family="sans-serif" font-size="14" lengthAdjust="spacing" textLength="133.9375" x="1406.5748" y="881.7114">Incomplete terminal</text><rect fill="#FDE68A" height="19.0679" style="stroke:none;stroke-width:1;" width="44.1978" x="1358.737" y="885.8133"/><text fill="#000000" font-family="sans-serif" font-size="14" lengthAdjust="spacing" textLength="3.64" x="1358.737" y="900.7793">&#160;</text><text fill="#000000" font-family="sans-serif" font-size="14" lengthAdjust="spacing" textLength="140.0275" x="1406.5748" y="900.7793">Cancellation terminal</text><line style="stroke:#000000;stroke-width:1;" x1="1358.737" x2="1571.5362" y1="752.3379" y2="752.3379"/><line style="stroke:#000000;stroke-width:1;" x1="1358.737" x2="1571.5362" y1="771.4058" y2="771.4058"/><line style="stroke:#000000;stroke-width:1;" x1="1358.737" x2="1571.5362" y1="790.4738" y2="790.4738"/><line style="stroke:#000000;stroke-width:1;" x1="1358.737" x2="1571.5362" y1="809.5417" y2="809.5417"/><line style="stroke:#000000;stroke-width:1;" x1="1358.737" x2="1571.5362" y1="828.6096" y2="828.6096"/><line style="stroke:#000000;stroke-width:1;" x1="1358.737" x2="1571.5362" y1="847.6775" y2="847.6775"/><line style="stroke:#000000;stroke-width:1;" x1="1358.737" x2="1571.5362" y1="866.7454" y2="866.7454"/><line style="stroke:#000000;stroke-width:1;" x1="1358.737" x2="1571.5362" y1="885.8133" y2="885.8133"/><line style="stroke:#000000;stroke-width:1;" x1="1358.737" x2="1571.5362" y1="904.8813" y2="904.8813"/><line style="stroke:#000000;stroke-width:1;" x1="1358.737" x2="1358.737" y1="752.3379" y2="904.8813"/><line style="stroke:#000000;stroke-width:1;" x1="1402.9349" x2="1402.9349" y1="752.3379" y2="904.8813"/><line style="stroke:#000000;stroke-width:1;" x1="1571.5362" x2="1571.5362" y1="752.3379" y2="904.8813"/></g><?plantuml-src dLLBZzCm4BxxLupe3QbItragM2dDGzh32eaLS5Zsu3hJ9ZIrY-tGNL7-EnFdsOZbm2qUVzzuvfj7R6PpX10jwcCcCsCp0GyYnQJ8KSE3vHRXdeiqayZC8PCdhlaHjbmSzbeLCWbKhZICuflOZuCUmgGyKUTCxc77SzFd-bghSqsRpnVJvR9FSm_-OW2nahP6JUAfD_F9jb4wGNtD_SrOHNhpMVxaUPRGT_86k87U6KRX9lBZg856poWAIz5zawBG6gMbbAn87Q-z95OG1v7Ni09rF6Qsef5fIyAvW1ohkuHH4CIRUDhGFk5t56KGuaNawC2DAIWjf5uK-87VuOqgj430vvGNfaadQaubFlJy5X_pBAynrIS1Gd_XnmtWJWfrFELKOmVgZXJfOhECmpP1BWNcZRFsLFgBLZT-JmT7Jvh4gnECV2-UXnF67jy-mNXyswy0wrTZ_4ZApbQprHE1hhLOEvMe2JNct6PA3ecHlxoP12Mn4sGDbfi326KiYIOG4mFR8jcZ7RAdAt--y4js5_OQy7YoBq0zMFo3qBN56hWGUB8Wk5Go4po7KyubOntaLQQI27NBZLtBmLdf0urQKnDpxMKIUwjLL0VSDDYwHLTj2rmcPJ1bkPne89M5fC1hN-4xpviupRlIhade7mMIS3P5IOaTf3hJnHw1qr2K8yxr2sEzrr-FwbHiyyoa8F7PWYb896DsHUwgC_0mMwxcqMQeZYEwb0Rmhbtg5kyUssNQz4kn8q2XSU302-P-59OEUkt_kfEi0saqHMw7yVo_bDUE_jwGNLYIWXagoQv7ffmqcZZMpKDZgRLgZhtC6rCNVMjfmsWiBCSzKeFfR9zQTla0rGAcZtlaiipZmYxlwmrxUu4lrVoKRLXTk2LA5r-hJiUguCrrjIpf-cEvI-bTbxpeEQZM2Y4UUaAu_nM9un3L0YN4NJMzj9TT7v2tQs2rxnomrMBWogqwGWJzUUfXI8fAa3y0?></g></svg>